# xmcd
#
# Track frame offsets:
#	150
#	18372
#	31115
#	47640
#	60932
#	74007
#	96035
#	113727
#	131910
#	148760
#	162272
#	178202
#	192490
#	211722
#	230357
#	246235
#	259202
#	274817
#	287455
#	304250
#
# Disc length: 4300 seconds
#
# Revision: 0
# Processed by: cddbd v1.5.1PL0 Copyright (c) Steve Scherf et al.
# Submitted via: dBpowerAMP V4.0
#
DISCID=2610ca14
DTITLE=Various Artist - Country Karaoke
DYEAR=1900
DGENRE=
TTITLE0=That Don't Impress Me Much (Karaoke)
TTITLE1=9 To 5 (Karaoke)
TTITLE2=A Boy Names Sue (Karaoke)
TTITLE3=Crazy (Karaoke)
TTITLE4=Crying (Karaoke)
TTITLE5=Friends In Low Places (Karaoke)
TTITLE6=Blanket On The Ground (Karaoke)
TTITLE7=How Do I Live (Karaoke)
TTITLE8=Lucille (Karaoke)
TTITLE9=Jolene (Karaoke)
TTITLE10=Rose Garden (Karaoke)
TTITLE11=Ruby Don't Take Your Love To Town (Karaoke)
TTITLE12=Sylvia's Mother (Karaoke)
TTITLE13=The Wind Beneath My Wings (Karaoke)
TTITLE14=Achy Breaky Heart (Karaoke)
TTITLE15=Behind Closed Doors (Karaoke)
TTITLE16=Rhinestone Cowboy (Karaoke)
TTITLE17=Stand By Your Man (Karaoke)
TTITLE18=You're Still The One (Karaoke)
TTITLE19=Talking In Your Sleep (Karaoke)
EXTD=Submitted By DJ Jay :P
EXTT0=
EXTT1=
EXTT2=
EXTT3=
EXTT4=
EXTT5=
EXTT6=
EXTT7=
EXTT8=
EXTT9=
EXTT10=
EXTT11=
EXTT12=
EXTT13=
EXTT14=
EXTT15=
EXTT16=
EXTT17=
EXTT18=
EXTT19=
PLAYORDER=
